<svg width="26" height="26" viewBox="0 0 26 26" fill="none" xmlns="http://www.w3.org/2000/svg">
<g clip-path="url(#clip0_2148_1495)">
<path d="M23.6078 20.2621C23.2146 21.1705 22.7492 22.0067 22.2099 22.7754C21.4749 23.8234 20.8731 24.5488 20.4093 24.9516C19.6903 25.6128 18.9199 25.9515 18.095 25.9707C17.5028 25.9707 16.7886 25.8022 15.9573 25.4604C15.1232 25.1201 14.3567 24.9516 13.6559 24.9516C12.9209 24.9516 12.1325 25.1201 11.2893 25.4604C10.4448 25.8022 9.76452 25.9804 9.24438 25.998C8.45333 26.0317 7.66485 25.6835 6.87781 24.9516C6.37548 24.5135 5.74717 23.7624 4.99448 22.6984C4.1869 21.5621 3.52295 20.2445 3.00281 18.7423C2.44575 17.1198 2.1665 15.5486 2.1665 14.0275C2.1665 12.285 2.54301 10.7822 3.29715 9.52286C3.88983 8.5113 4.67831 7.71335 5.66516 7.12756C6.652 6.54178 7.71829 6.24327 8.86659 6.22417C9.4949 6.22417 10.3188 6.41852 11.3428 6.80049C12.3638 7.18374 13.0194 7.37809 13.3068 7.37809C13.5217 7.37809 14.25 7.15083 15.4847 6.69777C16.6522 6.27761 17.6376 6.10364 18.4449 6.17217C20.6323 6.34871 22.2757 7.21102 23.3687 8.76455C21.4123 9.94992 20.4446 11.6102 20.4638 13.74C20.4815 15.399 21.0833 16.7795 22.2661 17.8757C22.8021 18.3844 23.4008 18.7776 24.0668 19.0569C23.9224 19.4757 23.7699 19.877 23.6078 20.2621ZM18.5909 0.520392C18.5909 1.82069 18.1159 3.03477 17.169 4.15852C16.0263 5.49443 14.6442 6.26638 13.1454 6.14457C13.1263 5.98857 13.1152 5.82439 13.1152 5.65187C13.1152 4.40358 13.6586 3.06767 14.6236 1.97539C15.1054 1.42234 15.7182 0.962491 16.4612 0.595661C17.2027 0.234304 17.904 0.0344656 18.5636 0.000244141C18.5829 0.174074 18.5909 0.347914 18.5909 0.520375V0.520392Z" fill="white"/>
</g>
<defs>
<clipPath id="clip0_2148_1495">
<rect width="26" height="26" fill="white"/>
</clipPath>
</defs>
</svg>
