<svg width="23" height="23" viewBox="0 0 23 23" fill="none" xmlns="http://www.w3.org/2000/svg">
<path d="M11.4995 9.40894V13.8626H17.6886C17.4168 15.2948 16.6012 16.5076 15.3781 17.323L19.1103 20.219C21.2849 18.2118 22.5394 15.2636 22.5394 11.7613C22.5394 10.9459 22.4663 10.1617 22.3303 9.40906L11.4995 9.40894Z" fill="#4285F4"/>
<path d="M5.05475 13.6888L4.21299 14.3332L1.2334 16.6541C3.12566 20.4072 7.004 23 11.4994 23C14.6043 23 17.2075 21.9754 19.1102 20.2191L15.378 17.3232C14.3534 18.0132 13.0466 18.4314 11.4994 18.4314C8.50944 18.4314 5.96906 16.4137 5.05945 13.6955L5.05475 13.6888Z" fill="#34A853"/>
<path d="M1.23354 6.34583C0.449498 7.89303 0 9.63896 0 11.4998C0 13.3607 0.449498 15.1066 1.23354 16.6539C1.23354 16.6642 5.05997 13.6848 5.05997 13.6848C4.82997 12.9948 4.69402 12.263 4.69402 11.4997C4.69402 10.7364 4.82997 10.0047 5.05997 9.31467L1.23354 6.34583Z" fill="#FBBC05"/>
<path d="M11.4997 4.57908C13.1933 4.57908 14.6987 5.16452 15.901 6.29362L19.1941 3.00049C17.1973 1.13961 14.6047 0 11.4997 0C7.00424 0 3.12566 2.58226 1.2334 6.34591L5.0597 9.31499C5.96919 6.59679 8.50967 4.57908 11.4997 4.57908Z" fill="#EA4335"/>
</svg>
